<svg width="64" height="21" viewBox="0 0 64 21" fill="none" xmlns="http://www.w3.org/2000/svg">
<rect width="64" height="21" rx="10.5" fill="#56C468"/>
<path d="M26.4428 10.4C26.4428 9.97333 26.5194 9.55 26.6728 9.13C26.8261 8.70333 27.0494 8.32333 27.3428 7.99C27.6428 7.65 28.0061 7.37667 28.4328 7.17C28.8594 6.96333 29.3428 6.86 29.8828 6.86C30.5294 6.86 31.0828 7.00333 31.5428 7.29C32.0028 7.57667 32.3494 7.95 32.5828 8.41L31.7028 9C31.6028 8.78667 31.4828 8.60667 31.3428 8.46C31.2028 8.31333 31.0494 8.19667 30.8828 8.11C30.7161 8.02333 30.5428 7.96333 30.3628 7.93C30.1828 7.89 30.0094 7.87 29.8428 7.87C29.4694 7.87 29.1428 7.94667 28.8628 8.1C28.5828 8.24667 28.3461 8.44333 28.1528 8.69C27.9661 8.93667 27.8228 9.21333 27.7228 9.52C27.6294 9.82667 27.5828 10.1333 27.5828 10.44C27.5828 10.7867 27.6394 11.1167 27.7528 11.43C27.8661 11.7433 28.0228 12.02 28.2228 12.26C28.4294 12.5 28.6728 12.6933 28.9528 12.84C29.2328 12.98 29.5394 13.05 29.8728 13.05C30.0461 13.05 30.2228 13.03 30.4028 12.99C30.5894 12.9433 30.7661 12.8733 30.9328 12.78C31.1061 12.68 31.2628 12.5567 31.4028 12.41C31.5494 12.2633 31.6694 12.0867 31.7628 11.88L32.6928 12.41C32.5794 12.6767 32.4194 12.9133 32.2128 13.12C32.0061 13.32 31.7728 13.49 31.5128 13.63C31.2528 13.77 30.9761 13.8767 30.6828 13.95C30.3961 14.0233 30.1128 14.06 29.8328 14.06C29.3328 14.06 28.8761 13.9533 28.4628 13.74C28.0494 13.5267 27.6928 13.25 27.3928 12.91C27.0928 12.5633 26.8594 12.1733 26.6928 11.74C26.5261 11.3 26.4428 10.8533 26.4428 10.4ZM38.2787 14H37.1787V11.07C37.1787 10.59 37.092 10.2367 36.9187 10.01C36.752 9.77667 36.5087 9.66 36.1887 9.66C36.0354 9.66 35.882 9.69 35.7287 9.75C35.5754 9.81 35.4287 9.89667 35.2887 10.01C35.1554 10.1167 35.0354 10.2467 34.9287 10.4C34.822 10.5467 34.742 10.71 34.6887 10.89V14H33.5887V6.7H34.6887V9.82C34.8887 9.46 35.1587 9.18 35.4987 8.98C35.8454 8.78 36.222 8.68 36.6287 8.68C36.9554 8.68 37.222 8.74 37.4287 8.86C37.642 8.97333 37.812 9.12667 37.9387 9.32C38.0654 9.51333 38.152 9.74 38.1987 10C38.252 10.2533 38.2787 10.5233 38.2787 10.81V14ZM41.9255 14.1C41.5188 14.1 41.1488 14.03 40.8155 13.89C40.4822 13.7433 40.1955 13.5467 39.9555 13.3C39.7222 13.0533 39.5388 12.7667 39.4055 12.44C39.2788 12.1133 39.2155 11.7667 39.2155 11.4C39.2155 11.0333 39.2788 10.6867 39.4055 10.36C39.5388 10.0267 39.7222 9.73667 39.9555 9.49C40.1955 9.23667 40.4822 9.04 40.8155 8.9C41.1488 8.75333 41.5222 8.68 41.9355 8.68C42.3422 8.68 42.7088 8.75333 43.0355 8.9C43.3688 9.04667 43.6522 9.24333 43.8855 9.49C44.1188 9.73 44.2955 10.0133 44.4155 10.34C44.5422 10.66 44.6055 10.9967 44.6055 11.35C44.6055 11.43 44.6022 11.5067 44.5955 11.58C44.5888 11.6467 44.5822 11.7033 44.5755 11.75H40.3855C40.4055 11.9833 40.4588 12.1933 40.5455 12.38C40.6388 12.5667 40.7555 12.73 40.8955 12.87C41.0422 13.0033 41.2055 13.1067 41.3855 13.18C41.5722 13.2533 41.7655 13.29 41.9655 13.29C42.1122 13.29 42.2555 13.2733 42.3955 13.24C42.5422 13.2 42.6755 13.1467 42.7955 13.08C42.9155 13.0067 43.0222 12.92 43.1155 12.82C43.2088 12.72 43.2822 12.61 43.3355 12.49L44.2755 12.76C44.0955 13.1533 43.7955 13.4767 43.3755 13.73C42.9622 13.9767 42.4788 14.1 41.9255 14.1ZM43.5155 10.99C43.4955 10.77 43.4388 10.5667 43.3455 10.38C43.2588 10.1933 43.1455 10.0367 43.0055 9.91C42.8655 9.77667 42.7022 9.67333 42.5155 9.6C42.3288 9.52667 42.1322 9.49 41.9255 9.49C41.7188 9.49 41.5222 9.52667 41.3355 9.6C41.1555 9.67333 40.9955 9.77667 40.8555 9.91C40.7155 10.0367 40.6022 10.1933 40.5155 10.38C40.4288 10.5667 40.3755 10.77 40.3555 10.99H43.5155ZM45.1628 11.38C45.1628 11.0133 45.2261 10.6667 45.3528 10.34C45.4794 10.0133 45.6594 9.72667 45.8928 9.48C46.1328 9.23333 46.4194 9.04 46.7528 8.9C47.0861 8.75333 47.4594 8.68 47.8728 8.68C48.4128 8.68 48.8761 8.8 49.2628 9.04C49.6561 9.27333 49.9494 9.58667 50.1428 9.98L49.0728 10.32C48.9461 10.1 48.7761 9.93 48.5628 9.81C48.3494 9.68333 48.1128 9.62 47.8528 9.62C47.6328 9.62 47.4261 9.66333 47.2328 9.75C47.0461 9.83667 46.8828 9.96 46.7428 10.12C46.6028 10.2733 46.4928 10.4567 46.4128 10.67C46.3328 10.8833 46.2928 11.12 46.2928 11.38C46.2928 11.6333 46.3328 11.87 46.4128 12.09C46.4994 12.3033 46.6128 12.49 46.7528 12.65C46.8994 12.81 47.0661 12.9367 47.2528 13.03C47.4461 13.1167 47.6494 13.16 47.8628 13.16C47.9961 13.16 48.1294 13.1433 48.2628 13.11C48.3961 13.07 48.5161 13.0167 48.6228 12.95C48.7361 12.8833 48.8328 12.8067 48.9128 12.72C48.9994 12.6333 49.0628 12.54 49.1028 12.44L50.1828 12.76C50.0094 13.1533 49.7194 13.4767 49.3128 13.73C48.9061 13.9767 48.4261 14.1 47.8728 14.1C47.4661 14.1 47.0961 14.0267 46.7628 13.88C46.4294 13.7333 46.1428 13.5367 45.9028 13.29C45.6694 13.0367 45.4861 12.7467 45.3528 12.42C45.2261 12.0933 45.1628 11.7467 45.1628 11.38ZM54.7287 14L53.0587 11.59L52.1887 12.41V14H51.0887V6.7H52.1887V11.33L54.5887 8.78H55.7887L53.7587 10.97L55.8987 14H54.7287Z" fill="white"/>
<path d="M11.3465 12.3667L17.2042 7C18.0191 7 18.0532 7.62222 17.9683 7.93333L11.0919 14C10.4127 13.3778 8.85066 11.9 8.03568 10.9667C7.83193 9.84667 8.54499 10.1889 9.05435 10.2667L11.3465 12.3667Z" fill="white" stroke="white"/>
</svg>
