<svg width="64" height="21" viewBox="0 0 64 21" fill="none" xmlns="http://www.w3.org/2000/svg">
<rect width="64" height="21" rx="10.5" fill="#FF4B4B"/>
<path d="M18.7822 13.732C19.0726 14.0225 19.0726 14.4919 18.7822 14.7824C18.6374 14.9272 18.4473 15 18.257 15C18.0669 15 17.8767 14.9272 17.7319 14.7824L15.5 12.5503L13.2681 14.7824C13.1233 14.9272 12.9331 15 12.743 15C12.5527 15 12.3626 14.9272 12.2178 14.7824C11.9274 14.4919 11.9274 14.0225 12.2178 13.732L14.4498 11.5001L12.2178 9.26813C11.9274 8.97763 11.9274 8.50828 12.2178 8.21778C12.5083 7.92741 12.9776 7.92741 13.2681 8.21778L15.5 10.4499L17.7319 8.21778C18.0224 7.92741 18.4917 7.92741 18.7822 8.21778C19.0726 8.50828 19.0726 8.97763 18.7822 9.26813L16.5502 11.5001L18.7822 13.732Z" fill="#FAFAFA"/>
<path d="M26.5383 11.04C26.5383 10.5707 26.6227 10.105 26.7913 9.643C26.96 9.17367 27.2057 8.75567 27.5283 8.389C27.8583 8.015 28.258 7.71433 28.7273 7.487C29.1967 7.25967 29.7283 7.146 30.3223 7.146C31.0337 7.146 31.6423 7.30367 32.1483 7.619C32.6543 7.93433 33.0357 8.345 33.2923 8.851L32.3243 9.5C32.2143 9.26533 32.0823 9.06733 31.9283 8.906C31.7743 8.74467 31.6057 8.61633 31.4223 8.521C31.239 8.42567 31.0483 8.35967 30.8503 8.323C30.6523 8.279 30.4617 8.257 30.2783 8.257C29.8677 8.257 29.5083 8.34133 29.2003 8.51C28.8923 8.67133 28.632 8.88767 28.4193 9.159C28.214 9.43033 28.0563 9.73467 27.9463 10.072C27.8437 10.4093 27.7923 10.7467 27.7923 11.084C27.7923 11.4653 27.8547 11.8283 27.9793 12.173C28.104 12.5177 28.2763 12.822 28.4963 13.086C28.7237 13.35 28.9913 13.5627 29.2993 13.724C29.6073 13.878 29.9447 13.955 30.3113 13.955C30.502 13.955 30.6963 13.933 30.8943 13.889C31.0997 13.8377 31.294 13.7607 31.4773 13.658C31.668 13.548 31.8403 13.4123 31.9943 13.251C32.1557 13.0897 32.2877 12.8953 32.3903 12.668L33.4133 13.251C33.2887 13.5443 33.1127 13.8047 32.8853 14.032C32.658 14.252 32.4013 14.439 32.1153 14.593C31.8293 14.747 31.525 14.8643 31.2023 14.945C30.887 15.0257 30.5753 15.066 30.2673 15.066C29.7173 15.066 29.215 14.9487 28.7603 14.714C28.3057 14.4793 27.9133 14.175 27.5833 13.801C27.2533 13.4197 26.9967 12.9907 26.8133 12.514C26.63 12.03 26.5383 11.5387 26.5383 11.04ZM34.4099 6.97H35.6199V13.339C35.6199 13.5517 35.6749 13.7203 35.7849 13.845C35.8949 13.9623 36.0489 14.021 36.2469 14.021C36.3275 14.021 36.4192 14.0063 36.5219 13.977C36.6319 13.9477 36.7345 13.9147 36.8299 13.878L37.0059 14.824C36.8299 14.9047 36.6209 14.967 36.3789 15.011C36.1369 15.0623 35.9205 15.088 35.7299 15.088C35.3119 15.088 34.9855 14.9743 34.7509 14.747C34.5235 14.5197 34.4099 14.197 34.4099 13.779V6.97ZM40.3144 15.11C39.8671 15.11 39.4601 15.033 39.0934 14.879C38.7268 14.7177 38.4114 14.5013 38.1474 14.23C37.8908 13.9587 37.6891 13.6433 37.5424 13.284C37.4031 12.9247 37.3334 12.5433 37.3334 12.14C37.3334 11.7367 37.4031 11.3553 37.5424 10.996C37.6891 10.6293 37.8908 10.3103 38.1474 10.039C38.4114 9.76033 38.7268 9.544 39.0934 9.39C39.4601 9.22867 39.8708 9.148 40.3254 9.148C40.7728 9.148 41.1761 9.22867 41.5354 9.39C41.9021 9.55133 42.2138 9.76767 42.4704 10.039C42.7271 10.303 42.9214 10.6147 43.0534 10.974C43.1928 11.326 43.2624 11.6963 43.2624 12.085C43.2624 12.173 43.2588 12.2573 43.2514 12.338C43.2441 12.4113 43.2368 12.4737 43.2294 12.525H38.6204C38.6424 12.7817 38.7011 13.0127 38.7964 13.218C38.8991 13.4233 39.0274 13.603 39.1814 13.757C39.3428 13.9037 39.5224 14.0173 39.7204 14.098C39.9258 14.1787 40.1384 14.219 40.3584 14.219C40.5198 14.219 40.6774 14.2007 40.8314 14.164C40.9928 14.12 41.1394 14.0613 41.2714 13.988C41.4034 13.9073 41.5208 13.812 41.6234 13.702C41.7261 13.592 41.8068 13.471 41.8654 13.339L42.8994 13.636C42.7014 14.0687 42.3714 14.4243 41.9094 14.703C41.4548 14.9743 40.9231 15.11 40.3144 15.11ZM42.0634 11.689C42.0414 11.447 41.9791 11.2233 41.8764 11.018C41.7811 10.8127 41.6564 10.6403 41.5024 10.501C41.3484 10.3543 41.1688 10.2407 40.9634 10.16C40.7581 10.0793 40.5418 10.039 40.3144 10.039C40.0871 10.039 39.8708 10.0793 39.6654 10.16C39.4674 10.2407 39.2914 10.3543 39.1374 10.501C38.9834 10.6403 38.8588 10.8127 38.7634 11.018C38.6681 11.2233 38.6094 11.447 38.5874 11.689H42.0634ZM45.7784 15.11C45.4998 15.11 45.2394 15.066 44.9974 14.978C44.7628 14.8827 44.5574 14.7543 44.3814 14.593C44.2128 14.4317 44.0771 14.241 43.9744 14.021C43.8791 13.801 43.8314 13.5627 43.8314 13.306C43.8314 13.0347 43.8901 12.789 44.0074 12.569C44.1248 12.349 44.2898 12.1583 44.5024 11.997C44.7224 11.8357 44.9791 11.711 45.2724 11.623C45.5731 11.535 45.9031 11.491 46.2624 11.491C46.5338 11.491 46.8014 11.5167 47.0654 11.568C47.3294 11.612 47.5678 11.6743 47.7804 11.755V11.359C47.7804 10.9337 47.6594 10.6037 47.4174 10.369C47.1754 10.127 46.8271 10.006 46.3724 10.006C46.0644 10.006 45.7601 10.0647 45.4594 10.182C45.1661 10.292 44.8618 10.4533 44.5464 10.666L44.1724 9.896C44.9131 9.39733 45.6831 9.148 46.4824 9.148C47.2744 9.148 47.8904 9.34967 48.3304 9.753C48.7704 10.1563 48.9904 10.7357 48.9904 11.491V13.57C48.9904 13.8267 49.0968 13.9587 49.3094 13.966V15C49.1921 15.022 49.0894 15.0367 49.0014 15.044C48.9208 15.0513 48.8401 15.055 48.7594 15.055C48.5248 15.055 48.3414 14.9963 48.2094 14.879C48.0848 14.7617 48.0078 14.6113 47.9784 14.428L47.9454 14.065C47.6888 14.4023 47.3698 14.6627 46.9884 14.846C46.6144 15.022 46.2111 15.11 45.7784 15.11ZM46.1084 14.219C46.4018 14.219 46.6768 14.1677 46.9334 14.065C47.1974 13.955 47.4028 13.8047 47.5494 13.614C47.7034 13.482 47.7804 13.3427 47.7804 13.196V12.437C47.5751 12.3563 47.3551 12.294 47.1204 12.25C46.8931 12.206 46.6694 12.184 46.4494 12.184C46.0168 12.184 45.6611 12.2793 45.3824 12.47C45.1111 12.6533 44.9754 12.899 44.9754 13.207C44.9754 13.493 45.0818 13.735 45.2944 13.933C45.5071 14.1237 45.7784 14.219 46.1084 14.219ZM53.6924 10.292C53.2231 10.3067 52.8051 10.4167 52.4384 10.622C52.0791 10.82 51.8224 11.106 51.6684 11.48V15H50.4584V9.247H51.5804V10.534C51.7784 10.138 52.0351 9.82267 52.3504 9.588C52.6731 9.346 53.0178 9.214 53.3844 9.192C53.4578 9.192 53.5164 9.192 53.5604 9.192C53.6118 9.192 53.6558 9.19567 53.6924 9.203V10.292Z" fill="white"/>
</svg>
