<svg width="33" height="33" viewBox="0 0 33 33" fill="none" xmlns="http://www.w3.org/2000/svg">
<path d="M16.5 31.7219C24.9068 31.7219 31.7219 24.9068 31.7219 16.5C31.7219 8.09318 24.9068 1.27811 16.5 1.27811C8.09318 1.27811 1.27811 8.09318 1.27811 16.5C1.27811 24.9068 8.09318 31.7219 16.5 31.7219Z" fill="#56C468"/>
<path d="M16.5 33C7.40263 33 0 25.5987 0 16.5C0 7.40263 7.40263 0 16.5 0C25.5987 0 33 7.40263 33 16.5C33 25.5987 25.5987 33 16.5 33ZM16.5 2.55615C8.81106 2.55615 2.55615 8.81106 2.55615 16.5C2.55615 24.1889 8.81106 30.4439 16.5 30.4439C24.1889 30.4439 30.4439 24.1876 30.4439 16.5C30.4439 8.81106 24.1889 2.55615 16.5 2.55615Z" fill="#56C468"/>
<path d="M16.5 24.0535C15.7945 24.0535 15.2219 23.4821 15.2219 22.7753V9.99455C15.2219 9.28905 15.7945 8.71645 16.5 8.71645C17.2055 8.71645 17.7781 9.28905 17.7781 9.99455V22.7753C17.7781 23.4821 17.2055 24.0535 16.5 24.0535Z" fill="white"/>
<path d="M22.8904 17.6631H10.1096C9.4041 17.6631 8.8315 17.0905 8.8315 16.3849C8.8315 15.6794 9.4041 15.1068 10.1096 15.1068H22.8904C23.5972 15.1068 24.1685 15.6794 24.1685 16.3849C24.1685 17.0905 23.5972 17.6631 22.8904 17.6631Z" fill="white"/>
</svg>
