<svg width="52" height="51" viewBox="0 0 52 51" fill="none" xmlns="http://www.w3.org/2000/svg">
<path d="M40.8318 40.1035L45.8487 34.2757L47.126 33.3223C47.8431 31.1052 48.2311 28.7384 48.2311 26.2782C48.2311 24.8314 48.0966 23.4175 47.8404 22.0464L46.0184 20.8412L40.3275 10.6865L40.7238 9.3685C37.8845 6.81615 34.4004 4.98724 30.5464 4.16773L25.9426 3.6853L19.3969 6.19218L8.11185 19.0604L8.23068 36.5655L21.9862 47.5744C24.4631 48.7935 30.3599 48.4007 30.5481 48.3878C35.0153 47.4371 38.9866 45.13 42.031 41.9122L40.8318 40.1035Z" fill="#A6E7F0"/>
<path d="M47.8403 22.0464H35.0999C34.4687 22.0464 33.8974 21.7871 33.4844 21.3675C33.0703 20.9488 32.8146 20.3697 32.8146 19.7299C32.8146 18.4513 33.8375 17.4144 35.0999 17.4144H37.6053C38.0528 17.4144 38.4587 17.2303 38.753 16.932C39.0463 16.6347 39.2279 16.2233 39.2279 15.7686C39.2279 14.8593 38.5014 14.1228 37.6053 14.1228H36.7955C36.1471 14.1228 35.5616 13.8564 35.1374 13.4264C34.7122 12.9965 34.4504 12.4019 34.4504 11.7456C34.4504 10.4331 35.4997 9.36847 36.7955 9.36847H40.7237C44.3393 12.6169 46.9046 17.039 47.8403 22.0464V22.0464Z" fill="#ADE194"/>
<path d="M27.1025 33.3223H47.1259C46.2582 36.006 44.9076 38.4685 43.1784 40.604H38.7479C37.7068 40.604 36.8625 39.7492 36.8625 38.6938V38.0272C36.8625 37.6127 36.5317 37.2763 36.1217 37.2763H27.1025C26.0258 37.2763 25.1521 36.3917 25.1521 35.2993C25.1521 34.7531 25.3703 34.2583 25.7234 33.9014C26.0766 33.5434 26.5636 33.3223 27.1025 33.3223Z" fill="#ADE194"/>
<path d="M14.378 37.2764H15.6818C14.9999 36.0388 14.4295 34.7295 13.9844 33.3624C13.0959 33.5469 12.4275 34.344 12.4275 35.2993C12.4276 36.3913 13.3008 37.2764 14.378 37.2764Z" fill="#97DA7B"/>
<path d="M12.8652 26.2782C12.8652 15.4005 20.452 6.31973 30.5519 4.16897C29.0657 3.85246 27.5216 3.6853 25.9426 3.6853C19.9158 3.6853 14.4489 6.11061 10.4373 10.0498L13.1495 10.3359L8.33232 15.7074L5.12089 27.803L3.87567 29.4623C5.40218 40.4325 14.6989 48.8711 25.9426 48.8711C27.5217 48.8711 29.0639 48.7038 30.5501 48.3873C20.4502 46.2365 12.8652 37.1559 12.8652 26.2782V26.2782Z" fill="#6BD9E7"/>
<path d="M27.3531 22.357C27.7408 22.751 27.9813 23.2951 27.9813 23.8959C27.9813 25.0973 27.0203 26.0714 25.835 26.0714H10.0838C10.0838 27.9446 8.58603 29.4638 6.73713 29.4638H4.18397H3.87447C3.72936 28.4229 3.65427 27.3593 3.65427 26.2782C3.65427 20.8552 5.53869 15.8787 8.6804 11.9853H22.671C23.4747 11.9853 24.2013 12.3155 24.7279 12.8494C25.2546 13.3832 25.5803 14.1208 25.5803 14.9354C25.5803 16.5648 24.2774 17.8856 22.671 17.8856H21.0514C20.0062 17.8856 19.1599 18.7434 19.1599 19.8029C19.1599 20.8614 20.0062 21.7203 21.0514 21.7203H25.835C26.4277 21.7203 26.9645 21.9641 27.3531 22.357V22.357Z" fill="#ADE194"/>
<path d="M17.8938 11.9853H8.6804C5.53869 15.8787 3.65427 20.8552 3.65427 26.2782C3.65427 27.3593 3.72936 28.4229 3.87447 29.4638H4.18397H6.73713C8.58603 29.4638 10.0838 27.9446 10.0838 26.0714H12.8674C12.9147 20.7288 14.7912 15.8294 17.8938 11.9853V11.9853Z" fill="#97DA7B"/>
<path d="M9.57361 15.5414C13.12 15.5414 15.9949 12.6272 15.9949 9.03242C15.9949 5.43761 13.12 2.52344 9.57361 2.52344C6.02726 2.52344 3.15237 5.43761 3.15237 9.03242C3.15237 12.6272 6.02726 15.5414 9.57361 15.5414Z" fill="#86E8D0"/>
<path d="M6.99865 8.8269C8.43421 8.8269 9.59797 7.64724 9.59797 6.19206C9.59797 4.73688 8.43421 3.55722 6.99865 3.55722C5.56308 3.55722 4.39932 4.73688 4.39932 6.19206C4.39932 7.64724 5.56308 8.8269 6.99865 8.8269Z" fill="#86E8D0"/>
<path d="M44.4113 48.6486C47.1901 48.6486 49.4428 46.3651 49.4428 43.5483C49.4428 40.7315 47.1901 38.448 44.4113 38.448C41.6324 38.448 39.3798 40.7315 39.3798 43.5483C39.3798 46.3651 41.6324 48.6486 44.4113 48.6486Z" fill="#86E8D0"/>
<path d="M11.6426 48.8173C13.5923 48.8173 15.1728 47.2152 15.1728 45.2389C15.1728 43.2626 13.5923 41.6605 11.6426 41.6605C9.69297 41.6605 8.11246 43.2626 8.11246 45.2389C8.11246 47.2152 9.69297 48.8173 11.6426 48.8173Z" fill="#86E8D0"/>
<path d="M14.378 37.2764H17.4463C18.5236 37.2764 19.3969 36.3912 19.3969 35.2992C19.3969 34.2072 18.5236 33.3219 17.4463 33.3219H14.378C13.3008 33.3219 12.4275 34.2072 12.4275 35.2992C12.4276 36.3913 13.3008 37.2764 14.378 37.2764Z" fill="#ADE194"/>
<path d="M7.67347 39.9359C7.82152 39.9359 7.9712 39.8922 8.10261 39.8011C8.44946 39.5605 8.53825 39.0803 8.3009 38.7287C6.56443 36.1567 5.41125 33.2704 4.89027 30.235H6.73744C8.74242 30.235 10.4165 28.7713 10.7745 26.8427H13.6381C14.0584 26.8427 14.3991 26.4973 14.3991 26.0712C14.3991 25.6451 14.0584 25.2997 13.6381 25.2997H10.0841C9.66383 25.2997 9.32307 25.6451 9.32307 26.0712C9.32307 27.5163 8.16319 28.692 6.73755 28.692H4.68163C4.60897 27.962 4.57143 27.2253 4.57143 26.4839C4.57143 23.3072 5.23275 20.2463 6.53703 17.3861C6.71339 16.9994 6.54707 16.5409 6.16552 16.3621C5.78387 16.1835 5.33169 16.352 5.15532 16.7387C3.75789 19.8032 3.04938 23.082 3.04938 26.4839C3.04938 31.1931 4.43098 35.7286 7.04482 39.6002C7.19216 39.8186 7.43073 39.9359 7.67347 39.9359V39.9359Z" fill="black"/>
<path d="M35.4047 45.9863C32.4604 47.4501 29.2919 48.1924 25.9872 48.1924C23.3836 48.1924 20.8397 47.7242 18.4264 46.8009C18.033 46.6503 17.594 46.8517 17.4456 47.2502C17.2972 47.6488 17.4957 48.094 17.8889 48.2444C20.4745 49.2336 23.1993 49.7353 25.9872 49.7353C29.5262 49.7353 32.9203 48.9401 36.075 47.3717C36.4524 47.1841 36.6083 46.7219 36.4232 46.3393C36.238 45.9567 35.782 45.7987 35.4047 45.9863V45.9863Z" fill="black"/>
<path d="M17.7251 6.3876C17.8196 6.3876 17.9156 6.3697 18.0086 6.33184C20.5448 5.2991 23.2291 4.77552 25.9872 4.77552C27.4009 4.77552 28.818 4.91706 30.1991 5.19623C30.6112 5.27996 31.0121 5.00841 31.0943 4.59057C31.1765 4.17274 30.909 3.76643 30.4968 3.68312C29.018 3.38419 27.5007 3.23257 25.9873 3.23257C23.0339 3.23257 20.1587 3.79359 17.4412 4.90009C17.0512 5.05891 16.862 5.50822 17.0187 5.90352C17.138 6.2046 17.4236 6.3876 17.7251 6.3876Z" fill="black"/>
<path d="M28.7426 23.8955C28.7426 22.2705 27.4384 20.9485 25.8353 20.9485H21.0513C20.428 20.9485 19.9208 20.4344 19.9208 19.8025C19.9208 19.1706 20.428 18.6565 21.0513 18.6565H22.6705C24.6948 18.6565 26.3417 16.9871 26.3417 14.9351C26.3417 12.8832 24.6949 11.2137 22.6705 11.2137H18.3941C17.9738 11.2137 17.633 11.5592 17.633 11.9852C17.633 12.4113 17.9738 12.7567 18.3941 12.7567H22.6705C23.8554 12.7567 24.8196 13.7339 24.8196 14.9351C24.8196 16.1364 23.8555 17.1136 22.6705 17.1136H21.0513C19.5887 17.1136 18.3986 18.3198 18.3986 19.8025C18.3986 21.2852 19.5887 22.4915 21.0513 22.4915H25.8353C26.599 22.4915 27.2204 23.1214 27.2204 23.8955C27.2204 24.6697 26.599 25.2996 25.8353 25.2996H16.8816C16.4612 25.2996 16.1205 25.645 16.1205 26.0711C16.1205 26.4972 16.4612 26.8426 16.8816 26.8426H25.8353C27.4384 26.8426 28.7426 25.5206 28.7426 23.8955V23.8955Z" fill="black"/>
<path d="M37.6239 38.0273C37.6239 37.1879 36.9502 36.505 36.1221 36.505H27.1028C26.447 36.505 25.9134 35.9642 25.9134 35.2993C25.9134 34.6344 26.447 34.0935 27.1028 34.0935H46.0492C45.9451 34.3751 45.8364 34.6554 45.7204 34.9335C45.5567 35.3259 45.7378 35.7786 46.1249 35.9446C46.2217 35.9861 46.3222 36.0057 46.421 36.0057C46.7175 36.0057 46.9995 35.8289 47.1223 35.5346C48.3186 32.6676 48.9252 29.6225 48.9252 26.4839C48.9252 21.5977 47.4466 16.9219 44.6491 12.9622C41.912 9.08797 38.1363 6.19371 33.7303 4.59212C33.3345 4.44842 32.8989 4.65693 32.757 5.05789C32.6151 5.45895 32.8208 5.90065 33.2165 6.04455C34.9724 6.68282 36.6207 7.54183 38.1327 8.59741H36.795C35.0824 8.59741 33.689 10.0098 33.689 11.7459C33.689 13.4819 35.0824 14.8943 36.795 14.8943H37.6048C38.0803 14.8943 38.4672 15.2864 38.4672 15.7684C38.4672 16.2504 38.0803 16.6427 37.6048 16.6427H35.0996C33.42 16.6427 32.0536 18.0277 32.0536 19.7302C32.0536 21.4327 33.42 22.8177 35.0996 22.8177H39.731C40.1513 22.8177 40.492 22.4723 40.492 22.0463C40.492 21.6202 40.1513 21.2748 39.731 21.2748H35.0996C34.2593 21.2748 33.5758 20.5819 33.5758 19.7302C33.5758 18.8785 34.2593 18.1856 35.0996 18.1856H37.6048C38.9196 18.1856 39.9893 17.1012 39.9893 15.7684C39.9893 14.4356 38.9196 13.3513 37.6048 13.3513H36.795C35.9217 13.3513 35.2112 12.6311 35.2112 11.7459C35.2112 10.8606 35.9217 10.1404 36.795 10.1404H40.0886C41.3227 11.2369 42.4376 12.482 43.4115 13.8605C45.0065 16.1182 46.1412 18.6256 46.7837 21.2748H42.9744C42.554 21.2748 42.2133 21.6202 42.2133 22.0463C42.2133 22.4723 42.554 22.8177 42.9744 22.8177H47.0995C47.3004 24.019 47.4031 25.244 47.4031 26.4838C47.4031 28.5597 47.1176 30.591 46.5553 32.5506H27.1028C25.6076 32.5506 24.3912 33.7836 24.3912 35.2993C24.3912 36.815 25.6076 38.048 27.1028 38.048H36.102C36.1128 38.4645 36.4493 38.7988 36.8629 38.7988C37.2831 38.7988 37.6239 38.4534 37.6239 38.0273V38.0273Z" fill="#090909"/>
<path d="M14.378 32.5506C12.8829 32.5506 11.6665 33.7836 11.6665 35.2993C11.6665 36.815 12.8829 38.048 14.378 38.048H17.4463C18.9414 38.048 20.1579 36.815 20.1579 35.2993C20.1579 33.7836 18.9415 32.5506 17.4463 32.5506H14.378ZM18.6358 35.2993C18.6358 35.9641 18.1022 36.505 17.4463 36.505H14.378C13.7222 36.505 13.1886 35.9642 13.1886 35.2993C13.1886 34.6344 13.7222 34.0935 14.378 34.0935H17.4463C18.1022 34.0935 18.6358 34.6345 18.6358 35.2993Z" fill="black"/>
<path d="M3.38871 16.4144L3.37816 16.4037L5.0649 14.6939C6.11275 15.553 7.40211 16.1204 8.81264 16.2717V17.4993C8.81264 17.9254 9.1534 18.2708 9.57371 18.2708C9.99403 18.2708 10.3348 17.9254 10.3348 17.4993V16.2717C11.7453 16.1204 13.0348 15.553 14.0825 14.6939L14.7218 15.3419C14.8704 15.4925 15.0652 15.5679 15.26 15.5679C15.4547 15.5679 15.6495 15.4926 15.7981 15.3419C16.0953 15.0407 16.0953 14.5522 15.7981 14.251L15.1588 13.6029C16.0063 12.5409 16.566 11.2338 16.7153 9.804H17.7251C18.1454 9.804 18.4862 9.45858 18.4862 9.03252C18.4862 8.60646 18.1454 8.26105 17.7251 8.26105H16.7153C16.5661 6.83115 16.0063 5.52417 15.1588 4.4621L16.3161 3.28895C16.6134 2.98766 16.6134 2.49917 16.3161 2.19798C16.0189 1.8967 15.537 1.8967 15.2399 2.19798L14.0825 3.37114C13.0348 2.51202 11.7454 1.94473 10.3348 1.79332V0.771474C10.3348 0.345415 9.99403 0 9.57371 0C9.1534 0 8.81264 0.345415 8.81264 0.771474V1.79332C7.40201 1.94463 6.11265 2.51202 5.0649 3.37114L4.04932 2.34158C3.7521 2.04019 3.27019 2.04029 2.97306 2.34158C2.67584 2.64286 2.67584 3.13126 2.97306 3.43255L3.98854 4.462C3.14101 5.52417 2.58126 6.83115 2.43199 8.26095H1.50185C1.42372 7.91913 1.12213 7.66413 0.761075 7.66413C0.340759 7.66413 0 8.00955 0 8.43561V9.56443C0 9.99049 0.340759 10.3359 0.761075 10.3359C1.09889 10.3359 1.38485 10.1126 1.4843 9.80389H2.43199C2.58126 11.2337 3.14101 12.5407 3.98854 13.6028L2.30169 15.3127C2.00427 15.0139 1.52438 15.0147 1.22797 15.3151C0.930744 15.6164 0.930744 16.1049 1.22797 16.4061L2.31245 17.5053C2.46101 17.656 2.65585 17.7313 2.85058 17.7313C3.04531 17.7313 3.24015 17.656 3.38871 17.5053C3.68594 17.2041 3.68594 16.7156 3.38871 16.4144V16.4144ZM8.83689 6.19216C8.83689 7.21956 8.01229 8.05553 6.99864 8.05553C5.98499 8.05553 5.16039 7.21966 5.16039 6.19216C5.16039 5.16466 5.98499 4.32879 6.99864 4.32879C8.01229 4.32879 8.83689 5.16466 8.83689 6.19216ZM4.04425 7.80907C4.61262 8.87339 5.72298 9.59837 6.99864 9.59837C8.85161 9.59837 10.359 8.07034 10.359 6.19206C10.359 5.00234 9.75363 3.95396 8.83933 3.3447C9.07993 3.31292 9.32469 3.29481 9.57371 3.29481C12.6947 3.29481 15.2339 5.86866 15.2339 9.03232C15.2339 12.196 12.6947 14.7698 9.57371 14.7698C6.4527 14.7698 3.91355 12.196 3.91355 9.03232C3.91345 8.61253 3.95942 8.20355 4.04425 7.80907V7.80907Z" fill="black"/>
<path d="M8.65545 12.87H8.98201C9.40232 12.87 9.74308 12.5246 9.74308 12.0986C9.74308 11.6725 9.40232 11.3271 8.98201 11.3271H8.65545C8.23514 11.3271 7.89438 11.6725 7.89438 12.0986C7.89438 12.5246 8.23514 12.87 8.65545 12.87Z" fill="black"/>
<path d="M12.2637 9.46086H12.982C13.4023 9.46086 13.7431 9.11544 13.7431 8.68938C13.7431 8.26332 13.4023 7.91791 12.982 7.91791H12.2637C11.8434 7.91791 11.5026 8.26332 11.5026 8.68938C11.5026 9.11544 11.8434 9.46086 12.2637 9.46086V9.46086Z" fill="black"/>
<path d="M51.9717 41.4051C51.8584 40.9948 51.4387 40.7555 51.0337 40.8699L49.7359 41.2378C49.535 40.7596 49.2757 40.3139 48.9624 39.9111L49.4039 39.3164C49.6566 38.9759 49.5892 38.4922 49.2533 38.2361C48.9174 37.9799 48.4403 38.0484 48.1876 38.3888L47.8592 38.8311C47.6664 38.6869 47.4649 38.5525 47.2528 38.4316C46.0996 37.7736 44.8172 37.5616 43.5986 37.7383L43.2926 36.6289C43.1794 36.2187 42.7597 35.979 42.3546 36.0937C41.9499 36.2084 41.7135 36.634 41.8267 37.0444L42.1327 38.1538C41.2215 38.5481 40.4047 39.1802 39.7818 40.0213L38.8511 39.4902C38.4849 39.2812 38.0208 39.4128 37.8145 39.784C37.6083 40.1552 37.7381 40.6257 38.1043 40.8347L39.0343 41.3655C38.6544 42.3215 38.5317 43.3526 38.6765 44.3728L37.7362 44.6393C37.3314 44.754 37.0951 45.1797 37.2083 45.5901C37.3022 45.9309 37.6079 46.154 37.9408 46.154C38.0086 46.154 39.0864 45.8588 39.0864 45.8588C39.4803 46.797 40.1035 47.607 40.9049 48.2222L40.4747 48.9219C40.1709 48.8749 39.8565 49.0178 39.6967 49.3053C39.4905 49.6766 39.6203 50.1471 39.9865 50.3561L40.7468 50.79C40.8649 50.8573 40.993 50.8893 41.1195 50.8893C41.3854 50.8893 41.6436 50.7478 41.7833 50.4962C41.9215 50.2472 41.9081 49.9542 41.7744 49.7248L42.2279 48.9873C42.9331 49.2787 43.6706 49.4191 44.401 49.4191C44.6769 49.4191 44.9517 49.3984 45.2235 49.359L45.5206 50.4361C45.6147 50.7769 45.9203 51 46.2532 51C46.321 51 46.39 50.9907 46.4586 50.9713C46.8634 50.8565 47.0997 50.4309 46.9865 50.0205L46.6894 48.9435C47.6008 48.5492 48.4185 47.9174 49.0413 47.0761L49.7407 47.4752C49.8588 47.5426 49.9869 47.5746 50.1133 47.5746C50.3793 47.5746 50.6376 47.433 50.7772 47.1814C50.9834 46.8101 50.8536 46.3397 50.4874 46.1307L49.7876 45.7313C50.1675 44.7753 50.2902 43.7442 50.1454 42.724L51.4433 42.3562C51.8485 42.2411 52.0849 41.8154 51.9717 41.4051ZM42.3164 47.3204C41.3224 46.7532 40.6058 45.8275 40.2986 44.714C39.9915 43.6004 40.1304 42.4323 40.6899 41.4248C41.4732 40.0142 42.9249 39.2202 44.4185 39.2202C45.1272 39.2202 45.8456 39.3992 46.5061 39.776C47.5 40.3432 48.2166 41.2688 48.5238 42.3823C48.831 43.4958 48.6921 44.664 48.1325 45.6716C46.9774 47.7518 44.3682 48.4914 42.3164 47.3204Z" fill="black"/>
<path d="M44.4566 41.8938C44.4566 41.4678 44.1159 41.1223 43.6956 41.1223H43.2395C42.8192 41.1223 42.4785 41.4678 42.4785 41.8938C42.4785 42.3199 42.8192 42.6653 43.2395 42.6653H43.6956C44.1159 42.6653 44.4566 42.3199 44.4566 41.8938Z" fill="black"/>
<path d="M45.5197 44.1503H44.9876C44.5673 44.1503 44.2266 44.4957 44.2266 44.9218C44.2266 45.3479 44.5673 45.6933 44.9876 45.6933H45.5197C45.94 45.6933 46.2808 45.3479 46.2808 44.9218C46.2808 44.4957 45.94 44.1503 45.5197 44.1503Z" fill="black"/>
<path d="M16.2279 43.1381L15.5047 43.3431C15.2368 42.7795 14.854 42.2848 14.3775 41.8871L14.7105 41.2875C14.7982 41.3214 14.8892 41.3384 14.9795 41.3384C15.2455 41.3384 15.5037 41.1969 15.6434 40.9453C15.8496 40.5741 15.7198 40.1036 15.3535 39.8946L14.2164 39.2457C13.8502 39.0368 13.386 39.1682 13.1798 39.5395C12.9909 39.8796 13.0846 40.3024 13.3833 40.5318L13.0509 41.1301C12.4684 40.9235 11.8525 40.8482 11.2382 40.9085L11.0764 40.3222C10.9632 39.9118 10.5432 39.6722 10.1384 39.787C9.73366 39.9016 9.49732 40.3273 9.61046 40.7377L9.77222 41.324C9.21613 41.5956 8.72812 41.9837 8.33582 42.4666L7.85289 42.1911C7.48666 41.9822 7.0225 42.1136 6.8163 42.4849C6.6101 42.8561 6.73989 43.3266 7.10612 43.5356L7.58905 43.8112C7.38528 44.4017 7.311 45.026 7.37047 45.6487L6.8982 45.7826C6.49341 45.8973 6.25707 46.323 6.37021 46.7334C6.46428 47.0742 6.76983 47.2973 7.10277 47.2973C7.17056 47.2973 7.23966 47.2881 7.30816 47.2686L7.78043 47.1348C8.04366 47.6887 8.41791 48.1763 8.88288 48.5704L8.43638 49.2966C8.21404 49.6581 8.32293 50.134 8.67962 50.3593C8.80484 50.4385 8.94397 50.4762 9.08147 50.4762C9.33546 50.4762 9.58378 50.3473 9.72808 50.1127L10.2052 49.3367C10.6666 49.504 11.1491 49.5908 11.6358 49.5908C11.7725 49.5908 11.9095 49.5817 12.0464 49.5683L12.2023 50.1335C12.2963 50.4743 12.602 50.6974 12.9348 50.6974C13.0026 50.6974 13.0716 50.6881 13.1401 50.6687C13.5449 50.5539 13.7814 50.1282 13.6682 49.7179L13.5126 49.1538C14.0687 48.8823 14.5566 48.4941 14.9491 48.0112L15.2704 48.1946C15.3885 48.262 15.5166 48.294 15.643 48.294C15.909 48.294 16.1673 48.1524 16.3069 47.9008C16.5131 47.5295 16.3833 47.0591 16.0171 46.8501L15.6956 46.6667C15.8994 46.0761 15.9737 45.4518 15.9142 44.8291L16.6374 44.6241C17.0422 44.5094 17.2785 44.0838 17.1654 43.6733C17.0526 43.263 16.6325 43.0233 16.2279 43.1381V43.1381ZM12.3884 47.9422C11.6759 48.1441 10.9288 48.0527 10.2843 47.685C9.63969 47.3173 9.17503 46.717 8.97583 45.995C8.77663 45.2729 8.86674 44.5155 9.22952 43.8621C9.5923 43.2087 10.1845 42.7377 10.8968 42.5358C11.1445 42.4655 11.3964 42.4307 11.6468 42.4307C12.1163 42.4307 12.5806 42.5531 13.0009 42.7929C13.6455 43.1608 14.1101 43.761 14.3093 44.483C14.5085 45.2051 14.4184 45.9625 14.0556 46.6158C13.6929 47.2692 13.1007 47.7402 12.3884 47.9422V47.9422Z" fill="black"/>
<path d="M11.9016 44.0782C11.9016 43.6522 11.5608 43.3068 11.1405 43.3068H10.8206C10.4002 43.3068 10.0595 43.6522 10.0595 44.0782C10.0595 44.5043 10.4002 44.8497 10.8206 44.8497H11.1405C11.5608 44.8497 11.9016 44.5043 11.9016 44.0782Z" fill="black"/>
<path d="M12.4204 45.4312H12.047C11.6267 45.4312 11.2859 45.7766 11.2859 46.2027C11.2859 46.6287 11.6267 46.9741 12.047 46.9741H12.4204C12.8407 46.9741 13.1814 46.6287 13.1814 46.2027C13.1814 45.7766 12.8407 45.4312 12.4204 45.4312V45.4312Z" fill="black"/>
</svg>
