<svg width="48" height="51" viewBox="0 0 48 51" fill="none" xmlns="http://www.w3.org/2000/svg">
<path d="M19.9219 17.5313V27.4428H19.9227C20.2287 27.3894 20.5363 27.3424 20.8463 27.3017C20.8917 27.2954 20.9379 27.2906 20.9833 27.2842C21.2582 27.2491 21.5332 27.2181 21.8113 27.1926C21.9396 27.1806 22.0695 27.1726 22.1985 27.1631C22.4081 27.1479 22.6169 27.1304 22.8281 27.1208C23.1851 27.1041 23.5445 27.0938 23.9062 27.0938C24.268 27.0938 24.6274 27.1041 24.9852 27.1208C25.1964 27.1304 25.4052 27.1479 25.6148 27.1631C25.7438 27.1726 25.8737 27.1806 26.002 27.1926C26.2793 27.2173 26.5551 27.2491 26.8292 27.2842C26.8746 27.2898 26.9208 27.2954 26.9663 27.3017C27.2762 27.3424 27.5838 27.3902 27.8898 27.4428H27.8906V17.5313H31.0781V15.9375V11.9531C31.0781 10.1928 29.6509 8.76563 27.8906 8.76563H23.9062H19.9219C18.1616 8.76563 16.7344 10.1928 16.7344 11.9531V15.9375V17.5313H19.9219Z" fill="#ADE194"/>
<path d="M35.0625 46.2187C34.182 46.2187 33.4688 45.5055 33.4688 44.625C33.4688 43.7444 34.182 43.0312 35.0625 43.0312H36.6562C37.5368 43.0312 38.25 42.318 38.25 41.4375C38.25 40.5569 37.5368 39.8437 36.6562 39.8437H28.6875C27.807 39.8437 27.0938 39.1305 27.0938 38.25C27.0938 37.3694 27.807 36.6562 28.6875 36.6562H30.2812C31.1618 36.6562 31.875 35.943 31.875 35.0625C31.875 34.1819 31.1618 33.4687 30.2812 33.4687H26.2969C25.4163 33.4687 24.7031 32.7555 24.7031 31.875C24.7031 30.9944 25.4163 30.2812 26.2969 30.2812H35.5223L34.2656 29.5473C32.2862 28.5528 30.1442 27.8356 27.8898 27.4436C27.5838 27.3902 27.2762 27.3432 26.9662 27.3025C26.9208 27.2962 26.8754 27.2914 26.8292 27.285C26.5543 27.2499 26.2793 27.2189 26.002 27.1934C25.8737 27.1814 25.7438 27.1734 25.6147 27.1639C25.4052 27.1487 25.1964 27.1312 24.9852 27.1216C24.6274 27.1041 24.268 27.0937 23.9062 27.0937C23.5445 27.0937 23.1851 27.1041 22.8273 27.1208C22.6161 27.1304 22.4073 27.1479 22.1978 27.1631C22.0687 27.1726 21.9396 27.1806 21.8105 27.1926C21.5332 27.2173 21.2574 27.2491 20.9825 27.2842C20.9371 27.2898 20.8909 27.2954 20.8455 27.3017C20.5355 27.3424 20.2279 27.3902 19.9219 27.4428C17.6675 27.8348 15.5255 28.552 13.5461 29.5465L11.31 30.8526C9.80634 31.8336 8.4142 32.9699 7.17984 34.2648L14.3892 34.2632C15.2434 34.2632 15.9367 34.9557 15.9367 35.8108V35.8506C15.9367 36.7391 15.2243 37.4531 14.3438 37.4523C13.8298 37.4523 13.2608 37.4523 12.7476 37.4523C11.8679 37.4531 11.1562 38.1663 11.1562 39.0469C11.1562 39.9274 11.8695 40.6406 12.75 40.6406H20.7188C21.5985 40.6406 22.3125 41.3538 22.3125 42.2344C22.3125 43.1149 21.6033 43.8281 20.7227 43.8281C17.6922 43.8281 12.2153 43.8281 7.96397 43.8281C7.08422 43.8281 6.375 44.5413 6.375 45.4219C6.375 46.3024 7.0882 47.0156 7.96875 47.0156H10.3594C11.2399 47.0156 11.9531 47.7288 11.9531 48.6094C11.9531 49.4899 11.2399 50.2031 10.3594 50.2031H47.0156C47.0156 48.8437 46.8913 47.5137 46.6666 46.2187H35.0625ZM27.8906 47.0156H26.2969C25.4163 47.0156 24.7031 46.3024 24.7031 45.4219C24.7031 44.5413 25.4163 43.8281 26.2969 43.8281H27.8906C28.7712 43.8281 29.4844 44.5413 29.4844 45.4219C29.4844 46.3024 28.7712 47.0156 27.8906 47.0156Z" fill="#A6E7F0"/>
<path d="M26.2969 30.2812C25.4163 30.2812 24.7031 30.9944 24.7031 31.875C24.7031 32.7555 25.4163 33.4687 26.2969 33.4687H30.2812C31.1618 33.4687 31.875 34.1819 31.875 35.0625C31.875 35.943 31.1618 36.6562 30.2812 36.6562H28.6875C27.807 36.6562 27.0938 37.3694 27.0938 38.25C27.0938 39.1305 27.807 39.8437 28.6875 39.8437H36.6562C37.5368 39.8437 38.25 40.5569 38.25 41.4375C38.25 42.318 37.5368 43.0312 36.6562 43.0312H35.0625C34.182 43.0312 33.4688 43.7444 33.4688 44.625C33.4688 45.5055 34.182 46.2187 35.0625 46.2187H46.6666C45.5653 39.886 41.8885 34.4425 36.7527 31L35.5223 30.2812H26.2969Z" fill="#97DA7B"/>
<path d="M11.9531 48.6094C11.9531 47.7288 11.2399 47.0156 10.3594 47.0156H7.96875C7.0882 47.0156 6.375 46.3024 6.375 45.4219C6.375 44.5413 7.08422 43.8281 7.96397 43.8281C12.2153 43.8281 17.6922 43.8281 20.7227 43.8281C21.6033 43.8281 22.3125 43.1141 22.3125 42.2344C22.3125 41.3546 21.5993 40.6406 20.7188 40.6406H12.75C11.8695 40.6406 11.1562 39.9266 11.1562 39.0469C11.1562 38.1663 11.8679 37.4531 12.7484 37.4531C13.2616 37.4531 13.8314 37.4531 14.3445 37.4531C15.2251 37.4531 15.9375 36.7399 15.9375 35.8514V35.8116C15.9375 34.9565 15.2442 34.264 14.39 34.264L7.18064 34.2656C3.22814 38.4126 0.796875 44.0218 0.796875 50.2031H10.3594C11.2399 50.2031 11.9531 49.4899 11.9531 48.6094Z" fill="#97DA7B"/>
<path d="M27.8906 43.8281H26.2969C25.4163 43.8281 24.7031 44.5413 24.7031 45.4219C24.7031 46.3024 25.4163 47.0156 26.2969 47.0156H27.8906C28.7712 47.0156 29.4844 46.3024 29.4844 45.4219C29.4844 44.5413 28.7712 43.8281 27.8906 43.8281Z" fill="#97DA7B"/>
<path d="M23.9062 8.76562C26.1068 8.76562 27.8906 6.98176 27.8906 4.78125C27.8906 2.58074 26.1068 0.796875 23.9062 0.796875C21.7057 0.796875 19.9219 2.58074 19.9219 4.78125C19.9219 6.98176 21.7057 8.76562 23.9062 8.76562Z" fill="#ADE194"/>
<path d="M38.25 12.75C40.4505 12.75 42.2344 10.9661 42.2344 8.76562C42.2344 6.56511 40.4505 4.78125 38.25 4.78125C36.0495 4.78125 34.2656 6.56511 34.2656 8.76562C34.2656 10.9661 36.0495 12.75 38.25 12.75Z" fill="#A6E7F0"/>
<path d="M9.5625 12.75C11.763 12.75 13.5469 10.9661 13.5469 8.76562C13.5469 6.56511 11.763 4.78125 9.5625 4.78125C7.36199 4.78125 5.57812 6.56511 5.57812 8.76562C5.57812 10.9661 7.36199 12.75 9.5625 12.75Z" fill="#A6E7F0"/>
<path d="M13.5469 21.5156H16.7344V17.5312V15.9375C16.7344 14.1772 15.3072 12.75 13.5469 12.75H9.5625H5.57812C3.81783 12.75 2.39062 14.1772 2.39062 15.9375V21.5156H5.57812V35.8594L9.5625 31.875L11.3108 30.8534L13.5469 29.5473V21.5156Z" fill="#A6E7F0"/>
<path d="M31.0781 21.5156H34.2656V29.5473L35.5223 30.2812L36.7527 31L38.25 31.875L42.2344 35.8594V21.5156H45.4219V15.9375C45.4219 14.1772 43.9947 12.75 42.2344 12.75H38.25H34.2656C32.5053 12.75 31.0781 14.1772 31.0781 15.9375V17.5312V21.5156Z" fill="#A6E7F0"/>
<path d="M27.8906 43.0312H26.2969C24.9788 43.0312 23.9062 44.1038 23.9062 45.4219C23.9062 46.7399 24.9788 47.8125 26.2969 47.8125H27.8906C29.2087 47.8125 30.2812 46.7399 30.2812 45.4219C30.2812 44.1038 29.2087 43.0312 27.8906 43.0312ZM27.8906 46.2188H26.2969C25.8578 46.2188 25.5 45.8617 25.5 45.4219C25.5 44.982 25.8578 44.625 26.2969 44.625H27.8906C28.3297 44.625 28.6875 44.982 28.6875 45.4219C28.6875 45.8617 28.3297 46.2188 27.8906 46.2188Z" fill="#243766"/>
<path d="M43.0312 35.8594V22.3125H45.4219C45.8618 22.3125 46.2188 21.9563 46.2188 21.5156V15.9375C46.2188 13.7405 44.4314 11.9531 42.2344 11.9531H41.8041C42.5643 11.106 43.0312 9.99122 43.0312 8.76562C43.0312 6.12877 40.8869 3.98438 38.25 3.98438C35.6131 3.98438 33.4688 6.12877 33.4688 8.76562C33.4688 9.99122 33.9357 11.106 34.6959 11.9531H34.2656C33.3652 11.9531 32.5428 12.2647 31.875 12.7707V11.9531C31.875 9.75614 30.0876 7.96875 27.8906 7.96875H27.4603C28.2205 7.12167 28.6875 6.00684 28.6875 4.78125C28.6875 2.14439 26.5431 0 23.9062 0C21.2694 0 19.125 2.14439 19.125 4.78125C19.125 6.00684 19.592 7.12167 20.3522 7.96875H19.9219C17.7249 7.96875 15.9375 9.75614 15.9375 11.9531V12.7707C15.2697 12.2647 14.4473 11.9531 13.5469 11.9531H13.1166C13.8768 11.106 14.3438 9.99122 14.3438 8.76562C14.3438 6.12877 12.1994 3.98438 9.5625 3.98438C6.92564 3.98438 4.78125 6.12877 4.78125 8.76562C4.78125 9.99122 5.24822 11.106 6.00844 11.9531H5.57812C3.38114 11.9531 1.59375 13.7405 1.59375 15.9375V21.5156C1.59375 21.9563 1.95075 22.3125 2.39062 22.3125H4.78125V35.8594H4.794C1.7858 39.8581 0 44.8258 0 50.2031C0 50.6438 0.357 51 0.796875 51H10.3594H47.0156C47.4555 51 47.8125 50.6438 47.8125 50.2031C47.8125 44.8258 46.0267 39.8581 43.0185 35.8594H43.0312ZM35.0625 8.76562C35.0625 7.00772 36.4921 5.57812 38.25 5.57812C40.0079 5.57812 41.4375 7.00772 41.4375 8.76562C41.4375 10.5235 40.0079 11.9531 38.25 11.9531C36.4921 11.9531 35.0625 10.5235 35.0625 8.76562ZM34.2656 13.5469H42.2344C43.5524 13.5469 44.625 14.6195 44.625 15.9375V20.7188H43.0312V15.9375H41.4375V33.9724C40.6924 33.1683 39.8947 32.4137 39.0469 31.7172V22.3125H37.4531V30.5203C36.9367 30.1633 36.4044 29.8286 35.8594 29.5131V29.4844H35.8092C35.5621 29.3417 35.3143 29.2023 35.0625 29.0684V15.9375H33.4688V20.7188H31.875V17.5312V15.9375C31.875 14.6195 32.9476 13.5469 34.2656 13.5469ZM36.6562 39.0469H28.6875C28.2484 39.0469 27.8906 38.6899 27.8906 38.25C27.8906 37.8101 28.2484 37.4531 28.6875 37.4531H30.2812C31.5993 37.4531 32.6719 36.3805 32.6719 35.0625C32.6719 33.7445 31.5993 32.6719 30.2812 32.6719H26.2969C25.8578 32.6719 25.5 32.3149 25.5 31.875C25.5 31.4351 25.8578 31.0781 26.2969 31.0781H35.3828C40.5562 34.1939 44.3652 39.3489 45.6968 45.4219H35.0625C34.6234 45.4219 34.2656 45.0649 34.2656 44.625C34.2656 44.1851 34.6234 43.8281 35.0625 43.8281H36.6562C37.9743 43.8281 39.0469 42.7555 39.0469 41.4375C39.0469 40.1195 37.9743 39.0469 36.6562 39.0469ZM28.6875 18.3281H30.2812V21.5156C30.2812 21.9563 30.6383 22.3125 31.0781 22.3125H33.4688V28.2986C31.9499 27.6324 30.3506 27.1169 28.6875 26.7774V18.3281ZM20.7188 4.78125C20.7188 3.02334 22.1483 1.59375 23.9062 1.59375C25.6642 1.59375 27.0938 3.02334 27.0938 4.78125C27.0938 6.53916 25.6642 7.96875 23.9062 7.96875C22.1483 7.96875 20.7188 6.53916 20.7188 4.78125ZM17.5312 11.9531C17.5312 10.6351 18.6038 9.5625 19.9219 9.5625H27.8906C29.2087 9.5625 30.2812 10.6351 30.2812 11.9531V15.9375V16.7344H28.6875V11.9531H27.0938V26.5136C27.0722 26.5104 27.0499 26.5096 27.0284 26.5072C26.5694 26.4467 26.1056 26.3997 25.6387 26.3662C25.563 26.3606 25.4872 26.3535 25.4115 26.3487C25.1765 26.3343 24.9406 26.3248 24.7031 26.3168V18.3281H23.1094V26.3168C22.8727 26.3248 22.636 26.3343 22.401 26.3487C22.3253 26.3535 22.2495 26.3606 22.1738 26.3662C21.7069 26.3997 21.2431 26.4467 20.7841 26.5072C20.7626 26.5104 20.7403 26.5112 20.7188 26.5136V11.9531H19.125V16.7344H17.5312V15.9375V11.9531ZM14.3438 28.2986V22.3125H16.7344C17.1742 22.3125 17.5312 21.9563 17.5312 21.5156V18.3281H19.125V26.7782C17.4619 27.1169 15.8626 27.6332 14.3438 28.2986ZM6.375 8.76562C6.375 7.00772 7.80459 5.57812 9.5625 5.57812C11.3204 5.57812 12.75 7.00772 12.75 8.76562C12.75 10.5235 11.3204 11.9531 9.5625 11.9531C7.80459 11.9531 6.375 10.5235 6.375 8.76562ZM4.78125 15.9375V20.7188H3.1875V15.9375C3.1875 14.6195 4.26009 13.5469 5.57812 13.5469H13.5469C14.8649 13.5469 15.9375 14.6195 15.9375 15.9375V17.5312V20.7188H14.3438V15.9375H12.75V29.0684C11.9228 29.5067 11.1252 29.9912 10.3594 30.5203V22.3125H8.76562V31.718C7.91775 32.4137 7.12008 33.1683 6.375 33.9732V15.9375H4.78125ZM1.60809 49.4062C1.80333 43.8799 4.02023 38.8612 7.53605 35.0625L14.39 35.0609C14.8043 35.0609 15.1406 35.3972 15.1406 35.8514C15.1406 36.0682 15.0577 36.2714 14.9063 36.4236C14.7573 36.5734 14.5581 36.6562 14.3453 36.6562C14.3453 36.6562 14.3453 36.6562 14.3445 36.6562H12.7484C11.4312 36.6562 10.3594 37.7288 10.3594 39.0469C10.3594 40.3649 11.432 41.4375 12.75 41.4375H20.7188C21.1578 41.4375 21.5156 41.7945 21.5156 42.2344C21.5156 42.6743 21.1602 43.0312 20.7227 43.0312H7.96397C6.64833 43.0312 5.57812 44.1038 5.57812 45.4219C5.57812 46.7399 6.65072 47.8125 7.96875 47.8125H10.3594C10.7985 47.8125 11.1562 48.1695 11.1562 48.6094C11.1562 49.0493 10.7985 49.4062 10.3594 49.4062H1.60809ZM12.6034 49.4062C12.6926 49.156 12.75 48.8899 12.75 48.6094C12.75 47.2913 11.6774 46.2188 10.3594 46.2188H7.96875C7.52967 46.2188 7.17188 45.8618 7.17188 45.4219C7.17188 44.982 7.52728 44.625 7.96397 44.625H20.7227C22.0392 44.625 23.1094 43.5524 23.1094 42.2344C23.1094 40.9163 22.0368 39.8438 20.7188 39.8438H12.75C12.3109 39.8438 11.9531 39.4868 11.9531 39.0469C11.9531 38.607 12.3101 38.25 12.7484 38.25H14.3438C14.3445 38.25 14.3453 38.25 14.3461 38.25C14.9852 38.25 15.5853 38.0014 16.0363 37.548C16.4858 37.0961 16.7344 36.4937 16.7344 35.8108C16.7344 34.5182 15.6825 33.4672 14.39 33.4672L9.16406 33.468C12.1898 30.7992 15.9439 28.9425 20.0844 28.2245C20.71 28.1169 21.3331 28.0349 21.9547 27.9799C21.985 27.9775 22.0153 27.9759 22.0448 27.9735C23.2879 27.8683 24.5254 27.8683 25.7677 27.9735C25.798 27.9759 25.8283 27.9775 25.8578 27.9799C26.4794 28.0349 27.1025 28.1169 27.7281 28.2245C29.27 28.4923 30.7594 28.9162 32.1762 29.4836H26.2969C24.9788 29.4836 23.9062 30.5562 23.9062 31.8742C23.9062 33.1922 24.9788 34.2648 26.2969 34.2648H30.2812C30.7203 34.2648 31.0781 34.6218 31.0781 35.0617C31.0781 35.5016 30.7203 35.8586 30.2812 35.8586H28.6875C27.3695 35.8586 26.2969 36.9312 26.2969 38.2492C26.2969 39.5672 27.3695 40.6398 28.6875 40.6398H36.6562C37.0953 40.6398 37.4531 40.9968 37.4531 41.4367C37.4531 41.8766 37.0953 42.2336 36.6562 42.2336H35.0625C33.7445 42.2336 32.6719 43.3062 32.6719 44.6242C32.6719 45.9422 33.7445 47.0148 35.0625 47.0148H45.9877C46.1008 47.7998 46.1757 48.5966 46.2044 49.4055H12.6034V49.4062Z" fill="#243766"/>
</svg>
