<svg width="41" height="58" viewBox="0 0 41 58" fill="none" xmlns="http://www.w3.org/2000/svg">
<path d="M35.2408 37.758V34.8H35.9604C36.5329 34.8 37.082 34.4945 37.4868 33.9506C37.8916 33.4068 38.1191 32.6691 38.1191 31.9C38.1191 31.1309 37.8916 30.3932 37.4868 29.8494C37.082 29.3055 36.5329 29 35.9604 29H28.7647C28.225 29.0016 27.7056 29.276 27.3096 29.7685C26.9137 30.261 26.6702 30.9357 26.6275 31.6583L23.0081 20.1067V11.6H23.7277C24.2001 11.6 24.668 11.475 25.1045 11.2321C25.541 10.9892 25.9376 10.6332 26.2717 10.1843C26.6058 9.73553 26.8708 9.20271 27.0516 8.6163C27.2324 8.0299 27.3255 7.40139 27.3255 6.76667V4.83333C27.3255 3.55145 26.9465 2.32208 26.2717 1.41565C25.597 0.509225 24.6819 0 23.7277 0H9.33625C8.38204 0 7.46691 0.509225 6.79218 1.41565C6.11745 2.32208 5.73839 3.55145 5.73839 4.83333V6.76667C5.73839 8.04855 6.11745 9.27792 6.79218 10.1843C7.46691 11.0908 8.38204 11.6 9.33625 11.6H10.0558V20.1067L0.28405 51.2913C0.052857 52.0254 -0.0394479 52.8249 0.0153747 53.6185C0.0701972 54.4122 0.270441 55.1752 0.598233 55.8396C0.926024 56.5039 1.37116 57.0489 1.89392 57.4259C2.41667 57.8029 3.00077 58.0001 3.59407 58H29.4698C29.8596 57.9934 30.246 57.902 30.6139 57.7293C31.1876 57.9057 31.774 57.9965 32.3625 58C34.4609 57.9962 36.4725 56.8746 37.9563 54.8813C39.4401 52.888 40.2749 50.1856 40.2778 47.3667C40.2778 43.007 38.6947 38.3283 35.2408 37.758ZM28.7647 30.9333H35.9604C36.1512 30.9333 36.3342 31.0352 36.4692 31.2165C36.6041 31.3977 36.6799 31.6436 36.6799 31.9C36.6799 32.1564 36.6041 32.4023 36.4692 32.5835C36.3342 32.7648 36.1512 32.8667 35.9604 32.8667H28.7647C28.5738 32.8667 28.3908 32.7648 28.2558 32.5835C28.1209 32.4023 28.0451 32.1564 28.0451 31.9C28.0451 31.6436 28.1209 31.3977 28.2558 31.2165C28.3908 31.0352 28.5738 30.9333 28.7647 30.9333ZM28.7647 34.8H29.4842V37.758C29.1889 37.8063 28.8975 37.8904 28.6135 38.0093L27.3975 34.1233C27.7804 34.5563 28.2641 34.7957 28.7647 34.8ZM9.33625 9.66667C8.76425 9.66437 8.21616 9.3581 7.81169 8.81474C7.40723 8.27138 7.17924 7.53509 7.17754 6.76667V4.83333C7.17924 4.06491 7.40723 3.32862 7.81169 2.78526C8.21616 2.2419 8.76425 1.93563 9.33625 1.93333H23.7277C24.2997 1.93563 24.8477 2.2419 25.2522 2.78526C25.6567 3.32862 25.8847 4.06491 25.8864 4.83333V6.76667C25.8847 7.53509 25.6567 8.27138 25.2522 8.81474C24.8477 9.3581 24.2997 9.66437 23.7277 9.66667H9.33625ZM11.4374 20.677C11.4737 20.5572 11.4932 20.4294 11.495 20.3V11.6H21.5689V20.3C21.5707 20.4294 21.5902 20.5572 21.6265 20.677L27.3111 38.8213C26.9358 39.1529 26.5947 39.5494 26.2965 40.0007C26.2102 39.9233 26.1094 39.846 26.0159 39.7687C24.5815 38.3842 22.8528 37.6587 21.0868 37.7H21.0077C21.3674 37.1719 21.5676 36.4825 21.5689 35.7667C21.5672 34.9982 21.3393 34.262 20.9348 33.7186C20.5303 33.1752 19.9822 32.869 19.4102 32.8667H13.6537C13.0811 32.8667 12.5321 33.1722 12.1272 33.7161C11.7224 34.2599 11.495 34.9975 11.495 35.7667C11.495 36.5358 11.7224 37.2734 12.1272 37.8173C12.5321 38.3611 13.0811 38.6667 13.6537 38.6667V41.3153C13.1012 41.4839 12.5364 41.5682 11.9699 41.5667C10.4713 41.6029 9.00531 40.9781 7.79637 39.788C7.19602 39.2387 6.5545 38.7754 5.88231 38.4057L11.4374 20.677ZM20.1298 35.7667C20.1298 36.023 20.054 36.2689 19.919 36.4502C19.7841 36.6315 19.6011 36.7333 19.4102 36.7333H13.6537C13.4628 36.7333 13.2798 36.6315 13.1449 36.4502C13.0099 36.2689 12.9341 36.023 12.9341 35.7667C12.9341 35.5103 13.0099 35.2644 13.1449 35.0831C13.2798 34.9018 13.4628 34.8 13.6537 34.8H19.4102C19.6011 34.8 19.7841 34.9018 19.919 35.0831C20.054 35.2644 20.1298 35.5103 20.1298 35.7667ZM9.50894 56.0667H3.59407C3.23869 56.0656 2.889 55.9467 2.57603 55.7205C2.26307 55.4943 1.99653 55.1678 1.80005 54.7699C1.60358 54.3721 1.48325 53.9153 1.44976 53.44C1.41627 52.9647 1.47064 52.4856 1.60806 52.0453L5.32104 40.1843C5.92191 40.517 6.49578 40.9316 7.03362 41.4217C8.46827 42.8138 10.2004 43.5431 11.9699 43.5C12.3225 43.5 12.6607 43.471 12.9845 43.4323L9.55931 53.94C9.33825 54.6134 9.32019 55.3757 9.50894 56.0667ZM22.1302 55.6317C22.0637 55.7652 21.9739 55.8747 21.8684 55.9506C21.763 56.0265 21.6454 56.0663 21.5258 56.0667H11.5381C11.4186 56.0663 11.3009 56.0265 11.1955 55.9506C11.0901 55.8747 11.0002 55.7652 10.9337 55.6317C10.8691 55.4963 10.8307 55.3414 10.8219 55.1811C10.8131 55.0207 10.8342 54.86 10.8833 54.7133L15.0352 41.9533C15.0722 41.8304 15.0917 41.6992 15.0928 41.5667V38.6667H17.9711V41.5667C17.9722 41.6992 17.9917 41.8304 18.0287 41.9533L22.1806 54.7133C22.2297 54.86 22.2508 55.0207 22.242 55.1811C22.2332 55.3414 22.1948 55.4963 22.1302 55.6317ZM23.5622 56.0667C23.7449 55.3737 23.7243 54.6133 23.5046 53.94L19.4102 41.3637V39.8653C19.9607 39.7026 20.5232 39.6248 21.0868 39.6333C22.5823 39.5942 24.046 40.2157 25.2531 41.4023C25.3251 41.47 25.3971 41.528 25.469 41.5957C24.7819 43.378 24.4311 45.3596 24.4472 47.3667C24.4489 49.0721 24.755 50.7521 25.3397 52.2658C25.9243 53.7795 26.7706 55.0829 27.8076 56.0667H23.5622ZM37.8312 52.0163C37.0803 53.6066 35.9656 54.8267 34.6545 55.4932C33.3433 56.1597 31.9066 56.2366 30.5601 55.7125C29.2136 55.1884 28.0301 54.0915 27.1873 52.5865C26.3446 51.0816 25.888 49.2499 25.8864 47.3667C25.8864 47.125 25.8936 46.8833 25.908 46.6417C26.3415 46.98 26.7167 47.4379 27.0089 47.9853C27.6421 49.0003 28.4265 50.2667 29.9591 50.2667C31.4918 50.2667 32.2834 49.0003 32.9166 47.9853C33.5498 46.9703 33.9384 46.4 34.7587 46.4C35.579 46.4 35.9819 46.9703 36.608 47.9853C37.0877 48.8954 37.7486 49.6056 38.5148 50.0347C38.3494 50.7309 38.1198 51.3967 37.8312 52.0163ZM38.8027 48.082C38.3755 47.7435 38.0055 47.2891 37.7161 46.748C37.0829 45.733 36.2986 44.4667 34.7587 44.4667C33.2188 44.4667 32.4417 45.733 31.8084 46.748C31.1752 47.763 30.7866 48.3333 29.9591 48.3333C29.1316 48.3333 28.7431 47.763 28.117 46.748C27.6222 45.8071 26.9312 45.0839 26.131 44.6697C26.305 43.6542 26.6173 42.6906 27.0521 41.8277C27.054 41.8277 27.0558 41.8266 27.0572 41.8248C27.0585 41.823 27.0593 41.8206 27.0593 41.818C27.4278 41.0899 27.9312 40.5035 28.52 40.1167C29.048 39.7911 29.6229 39.626 30.2038 39.6333C30.3946 39.6333 30.5777 39.5315 30.7126 39.3502C30.8476 39.1689 30.9234 38.923 30.9234 38.6667V34.8H33.8016V38.6667C33.8016 38.923 33.8775 39.1689 34.0124 39.3502C34.1473 39.5315 34.3304 39.6333 34.5212 39.6333C37.932 39.6333 38.8386 44.4957 38.8386 47.3667C38.8386 47.6083 38.8171 47.8403 38.8027 48.082Z" fill="black"/>
</svg>
